<svg width="200" height="200" viewBox="0 0 200 200" fill="none" xmlns="http://www.w3.org/2000/svg">
<path d="M57.581 62.0068C57.581 38.8048 76.387 20 99.588 20C122.789 20 141.6 38.8048 141.6 62.0068C141.6 72.7168 137.59 82.4906 130.993 89.9106C151.378 101.044 165.209 122.677 165.209 147.546V174.711C146.483 177.867 123.907 179.707 99.606 179.707C75.307 179.707 52.733 177.867 34 174.711V147.546C34 122.68 47.813 101.049 68.19 89.915C61.59 82.494 57.581 72.7188 57.581 62.0068Z" fill="#8743DB"/>
<path d="M99.323 179.708H99.893C124.082 179.692 146.553 177.856 165.208 174.712V147.547C165.208 145.504 165.117 143.486 164.936 141.496C146.262 138.37 123.788 136.549 99.606 136.549C75.426 136.549 52.954 138.37 34.278 141.496C34.096 143.486 34 145.504 34 147.547V174.712C52.657 177.856 75.131 179.692 99.323 179.708Z" fill="url(#paint0_linear_2866_681)"/>
<path d="M79.948 144.908L100.071 129.836C103.641 126.954 107.858 129.223 105.055 134.061C101.928 140.424 91.711 156.595 91.711 156.595C91.268 157.315 90.15 158.384 89.481 158.886C86.969 160.776 78.774 160.949 76.87 153.844C75.95 150.416 77.276 146.916 79.948 144.908Z" fill="url(#paint1_linear_2866_681)"/>
<path d="M144.346 112.02C150.903 119.996 155.352 129.769 156.846 140.486L124.034 143.69C122.905 139.467 121.048 135.539 118.614 132.049L144.346 112.02ZM42.364 148.505V148.556V148.607C42.366 149.629 42.395 150.647 42.45 151.659L50.655 150.858C50.987 145.911 52.28 141.231 54.348 136.999L44.493 132.955C43.106 137.9 42.364 143.118 42.364 148.505ZM107.045 91.4307C119.902 93.0287 131.443 98.8689 140.221 107.505L115.428 128.082C111.653 123.982 106.971 120.73 101.699 118.642L107.045 91.4307ZM63.979 103.566C73.819 95.6969 86.301 90.9878 99.885 90.9878L101.104 91.001L96.829 117.088C93.981 116.396 91.002 116.027 87.938 116.027C83.375 116.027 79.001 116.843 74.956 118.339L63.979 103.566ZM46.012 128.301C49.086 120.113 53.973 112.812 60.184 106.885L70.555 120.308C64.928 123.269 60.149 127.624 56.678 132.912L46.012 128.301Z" fill="url(#paint2_linear_2866_681)"/>
<defs>
<linearGradient id="paint0_linear_2866_681" x1="42.8423" y1="130.823" x2="156.333" y2="185.505" gradientUnits="userSpaceOnUse">
<stop stop-color="#1DCAAD"/>
<stop offset="0.5804" stop-color="#7C31D8"/>
<stop offset="1" stop-color="#7C31D8"/>
</linearGradient>
<linearGradient id="paint1_linear_2866_681" x1="75.8872" y1="145.605" x2="107.998" y2="143.31" gradientUnits="userSpaceOnUse">
<stop stop-color="#FFD77A"/>
<stop offset="0.9608" stop-color="#FF7681"/>
<stop offset="1" stop-color="#FF7681"/>
</linearGradient>
<linearGradient id="paint2_linear_2866_681" x1="41.6699" y1="123.208" x2="157.285" y2="115.576" gradientUnits="userSpaceOnUse">
<stop stop-color="#FFD77A"/>
<stop offset="1" stop-color="#FF7681"/>
</linearGradient>
</defs>
</svg>
